{
	"streams": [
		{
			"index": 0,
			"codec_name": "hevc",
			"codec_long_name": "unknown",
			"profile": "1",
			"codec_type": "video",
			"codec_time_base": "1001/24000",
			"codec_tag_string": "[0][0][0][0]",
			"codec_tag": "0x0000",
			"width": 1920,
			"height": 1080,
			"coded_width": 1920,
			"coded_height": 1088,
			"has_b_frames": 1,
			"sample_aspect_ratio": "1:1",
			"display_aspect_ratio": "16:9",
			"pix_fmt": "yuv420p",
			"level": 41,
			"color_range": "tv",
			"chroma_location": "left",
			"refs": 1,
			"r_frame_rate": "24000/1001",
			"avg_frame_rate": "24000/1001",
			"time_base": "1/1000",
			"start_pts": 0,
			"start_time": "0.000000",
			"disposition": {
				"default": 1,
				"dub": 0,
				"original": 0,
				"comment": 0,
				"lyrics": 0,
				"karaoke": 0,
				"forced": 0,
				"hearing_impaired": 0,
				"visual_impaired": 0,
				"clean_effects": 0,
				"attached_pic": 0,
				"timed_thumbnails": 0
			},
			"tags": {
				"ENCODER": "Lavc58.53.100 hevc_vaapi",
				"DURATION": "02:17:23.298000000"
			}
		},
		{
			"index": 1,
			"codec_name": "aac",
			"codec_long_name": "unknown",
			"profile": "1",
			"codec_type": "audio",
			"codec_time_base": "1/48000",
			"codec_tag_string": "[0][0][0][0]",
			"codec_tag": "0x0000",
			"sample_fmt": "fltp",
			"sample_rate": "48000",
			"channels": 8,
			"channel_layout": "7.1",
			"bits_per_sample": 0,
			"r_frame_rate": "0/0",
			"avg_frame_rate": "0/0",
			"time_base": "1/1000",
			"start_pts": 0,
			"start_time": "0.000000",
			"disposition": {
				"default": 1,
				"dub": 0,
				"original": 0,
				"comment": 0,
				"lyrics": 0,
				"karaoke": 0,
				"forced": 0,
				"hearing_impaired": 0,
				"visual_impaired": 0,
				"clean_effects": 0,
				"attached_pic": 0,
				"timed_thumbnails": 0
			},
			"tags": {
				"language": "eng",
				"ENCODER": "Lavc58.53.100 aac",
				"DURATION": "02:17:23.306000000"
			}
		},
		{
			"index": 2,
			"codec_name": "aac",
			"codec_long_name": "unknown",
			"profile": "1",
			"codec_type": "audio",
			"codec_time_base": "1/48000",
			"codec_tag_string": "[0][0][0][0]",
			"codec_tag": "0x0000",
			"sample_fmt": "fltp",
			"sample_rate": "48000",
			"channels": 2,
			"channel_layout": "stereo",
			"bits_per_sample": 0,
			"r_frame_rate": "0/0",
			"avg_frame_rate": "0/0",
			"time_base": "1/1000",
			"start_pts": 0,
			"start_time": "0.000000",
			"disposition": {
				"default": 1,
				"dub": 0,
				"original": 0,
				"comment": 0,
				"lyrics": 0,
				"karaoke": 0,
				"forced": 0,
				"hearing_impaired": 0,
				"visual_impaired": 0,
				"clean_effects": 0,
				"attached_pic": 0,
				"timed_thumbnails": 0
			},
			"tags": {
				"ENCODER": "Lavc58.53.100 aac",
				"DURATION": "02:17:23.317000000"
			}
		},
		{
			"index": 3,
			"codec_name": "aac",
			"codec_long_name": "unknown",
			"profile": "1",
			"codec_type": "audio",
			"codec_time_base": "1/48000",
			"codec_tag_string": "[0][0][0][0]",
			"codec_tag": "0x0000",
			"sample_fmt": "fltp",
			"sample_rate": "48000",
			"channels": 6,
			"bits_per_sample": 0,
			"r_frame_rate": "0/0",
			"avg_frame_rate": "0/0",
			"time_base": "1/1000",
			"start_pts": 0,
			"start_time": "0.000000",
			"disposition": {
				"default": 1,
				"dub": 0,
				"original": 0,
				"comment": 0,
				"lyrics": 0,
				"karaoke": 0,
				"forced": 0,
				"hearing_impaired": 0,
				"visual_impaired": 0,
				"clean_effects": 0,
				"attached_pic": 0,
				"timed_thumbnails": 0
			},
			"tags": {
				"ENCODER": "Lavc58.53.100 aac",
				"DURATION": "02:17:23.317000000"
			}
		},
		{
			"index": 4,
			"codec_name": "aac",
			"codec_long_name": "unknown",
			"profile": "1",
			"codec_type": "audio",
			"codec_time_base": "1/48000",
			"codec_tag_string": "[0][0][0][0]",
			"codec_tag": "0x0000",
			"sample_fmt": "fltp",
			"sample_rate": "48000",
			"channels": 6,
			"bits_per_sample": 0,
			"r_frame_rate": "0/0",
			"avg_frame_rate": "0/0",
			"time_base": "1/1000",
			"start_pts": 0,
			"start_time": "0.000000",
			"disposition": {
				"default": 1,
				"dub": 0,
				"original": 0,
				"comment": 0,
				"lyrics": 0,
				"karaoke": 0,
				"forced": 0,
				"hearing_impaired": 0,
				"visual_impaired": 0,
				"clean_effects": 0,
				"attached_pic": 0,
				"timed_thumbnails": 0
			},
			"tags": {
				"ENCODER": "Lavc58.53.100 aac",
				"DURATION": "02:17:23.317000000"
			}
		},
		{
			"index": 5,
			"codec_name": "aac",
			"codec_long_name": "unknown",
			"profile": "1",
			"codec_type": "audio",
			"codec_time_base": "1/48000",
			"codec_tag_string": "[0][0][0][0]",
			"codec_tag": "0x0000",
			"sample_fmt": "fltp",
			"sample_rate": "48000",
			"channels": 6,
			"bits_per_sample": 0,
			"r_frame_rate": "0/0",
			"avg_frame_rate": "0/0",
			"time_base": "1/1000",
			"start_pts": 0,
			"start_time": "0.000000",
			"disposition": {
				"default": 1,
				"dub": 0,
				"original": 0,
				"comment": 0,
				"lyrics": 0,
				"karaoke": 0,
				"forced": 0,
				"hearing_impaired": 0,
				"visual_impaired": 0,
				"clean_effects": 0,
				"attached_pic": 0,
				"timed_thumbnails": 0
			},
			"tags": {
				"ENCODER": "Lavc58.53.100 aac",
				"DURATION": "02:17:23.317000000"
			}
		},
		{
			"index": 6,
			"codec_name": "aac",
			"codec_long_name": "unknown",
			"profile": "1",
			"codec_type": "audio",
			"codec_time_base": "1/48000",
			"codec_tag_string": "[0][0][0][0]",
			"codec_tag": "0x0000",
			"sample_fmt": "fltp",
			"sample_rate": "48000",
			"channels": 2,
			"channel_layout": "stereo",
			"bits_per_sample": 0,
			"r_frame_rate": "0/0",
			"avg_frame_rate": "0/0",
			"time_base": "1/1000",
			"start_pts": 0,
			"start_time": "0.000000",
			"disposition": {
				"default": 1,
				"dub": 0,
				"original": 0,
				"comment": 0,
				"lyrics": 0,
				"karaoke": 0,
				"forced": 0,
				"hearing_impaired": 0,
				"visual_impaired": 0,
				"clean_effects": 0,
				"attached_pic": 0,
				"timed_thumbnails": 0
			},
			"tags": {
				"ENCODER": "Lavc58.53.100 aac",
				"DURATION": "02:17:23.317000000"
			}
		},
		{
			"index": 7,
			"codec_name": "hdmv_pgs_subtitle",
			"codec_long_name": "unknown",
			"codec_type": "subtitle",
			"codec_time_base": "0/1",
			"codec_tag_string": "[0][0][0][0]",
			"codec_tag": "0x0000",
			"r_frame_rate": "0/0",
			"avg_frame_rate": "0/0",
			"time_base": "1/1000",
			"start_pts": 0,
			"start_time": "0.000000",
			"duration_ts": 8243317,
			"duration": "8243.317000",
			"disposition": {
				"default": 1,
				"dub": 0,
				"original": 0,
				"comment": 0,
				"lyrics": 0,
				"karaoke": 0,
				"forced": 0,
				"hearing_impaired": 0,
				"visual_impaired": 0,
				"clean_effects": 0,
				"attached_pic": 0,
				"timed_thumbnails": 0
			},
			"tags": {
				"language": "eng",
				"DURATION": "02:14:50.020000000"
			}
		},
		{
			"index": 8,
			"codec_name": "hdmv_pgs_subtitle",
			"codec_long_name": "unknown",
			"codec_type": "subtitle",
			"codec_time_base": "0/1",
			"codec_tag_string": "[0][0][0][0]",
			"codec_tag": "0x0000",
			"r_frame_rate": "0/0",
			"avg_frame_rate": "0/0",
			"time_base": "1/1000",
			"start_pts": 0,
			"start_time": "0.000000",
			"duration_ts": 8243317,
			"duration": "8243.317000",
			"disposition": {
				"default": 1,
				"dub": 0,
				"original": 0,
				"comment": 0,
				"lyrics": 0,
				"karaoke": 0,
				"forced": 0,
				"hearing_impaired": 0,
				"visual_impaired": 0,
				"clean_effects": 0,
				"attached_pic": 0,
				"timed_thumbnails": 0
			},
			"tags": {
				"DURATION": "02:17:14.164000000"
			}
		},
		{
			"index": 9,
			"codec_name": "hdmv_pgs_subtitle",
			"codec_long_name": "unknown",
			"codec_type": "subtitle",
			"codec_time_base": "0/1",
			"codec_tag_string": "[0][0][0][0]",
			"codec_tag": "0x0000",
			"r_frame_rate": "0/0",
			"avg_frame_rate": "0/0",
			"time_base": "1/1000",
			"start_pts": 0,
			"start_time": "0.000000",
			"duration_ts": 8243317,
			"duration": "8243.317000",
			"disposition": {
				"default": 1,
				"dub": 0,
				"original": 0,
				"comment": 0,
				"lyrics": 0,
				"karaoke": 0,
				"forced": 0,
				"hearing_impaired": 0,
				"visual_impaired": 0,
				"clean_effects": 0,
				"attached_pic": 0,
				"timed_thumbnails": 0
			},
			"tags": {
				"DURATION": "02:17:14.330000000"
			}
		}
	],
	"format": {
		"filename": "/data/Logan.mkv",
		"nb_streams": 10,
		"nb_programs": 0,
		"format_name": "matroska,webm",
		"start_time": "0.000000",
		"duration": "8243.317000",
		"size": "6838300628",
		"bit_rate": "6636455",
		"probe_score": 100,
		"tags": {
			"title": "Logan",
			"YEAR": "2017",
			"ENCODER": "Lavf58.28.101"
		}
	}
}
